<?xml version="1.0" standalone="no"?>
<!DOCTYPE svg PUBLIC "-//W3C//DTD SVG 20010904//EN"
 "http://www.w3.org/TR/2001/REC-SVG-20010904/DTD/svg10.dtd">
<svg version="1.0" xmlns="http://www.w3.org/2000/svg"
 width="2705.000000pt" height="2705.000000pt" viewBox="0 0 2705.000000 2705.000000"
 preserveAspectRatio="xMidYMid meet">
<metadata>
Created by potrace 1.14, written by Peter Selinger 2001-2017
</metadata>
<g transform="translate(0.000000,2705.000000) scale(0.100000,-0.100000)"
fill="#000000" stroke="none">
<path d="M13165 27024 c-17 -26 -71 -116 -89 -149 -19 -33 -307 -518 -325
-545 -8 -14 -21 -34 -27 -45 -6 -11 -81 -137 -166 -280 -85 -143 -235 -395
-333 -560 -98 -165 -188 -316 -200 -335 -12 -19 -38 -62 -57 -95 -34 -58 -179
-303 -443 -745 -71 -118 -133 -224 -139 -235 -7 -11 -78 -130 -159 -265 -136
-228 -154 -253 -254 -356 -60 -61 -153 -158 -208 -215 -55 -58 -175 -184 -267
-280 -91 -96 -183 -192 -203 -214 -21 -22 -117 -123 -215 -225 -97 -102 -198
-207 -224 -235 -47 -49 -313 -328 -391 -410 -156 -163 -382 -399 -425 -445
-29 -30 -123 -129 -210 -220 -87 -91 -181 -190 -210 -220 -78 -82 -367 -384
-434 -454 -32 -34 -124 -130 -205 -215 -80 -84 -168 -177 -196 -206 -27 -28
-124 -130 -215 -225 -91 -95 -191 -200 -222 -232 -87 -91 -357 -374 -410 -430
-26 -28 -118 -125 -205 -215 -87 -91 -183 -192 -213 -223 -30 -32 -127 -134
-215 -226 -88 -92 -182 -190 -208 -218 -132 -139 -201 -206 -213 -206 -14 0
-42 33 -104 125 -80 117 -213 300 -222 303 -4 2 -8 9 -8 15 0 7 -14 28 -30 47
-16 19 -33 40 -38 45 -132 169 -235 285 -252 285 -13 0 -15 -6 -89 -210 -33
-91 -95 -255 -140 -365 -44 -110 -96 -240 -116 -290 -20 -49 -42 -103 -50
-120 -7 -16 -45 -106 -85 -200 -40 -93 -80 -175 -89 -182 -9 -6 -18 -27 -19
-47 -2 -20 -20 -75 -42 -122 -22 -47 -40 -87 -40 -89 0 -3 -11 -28 -24 -57
-13 -29 -78 -174 -144 -323 -127 -288 -135 -305 -219 -490 -74 -162 -72 -158
-156 -345 -42 -91 -92 -201 -112 -245 -20 -44 -47 -102 -60 -130 -12 -27 -39
-86 -60 -130 -20 -44 -47 -102 -60 -130 -13 -27 -40 -86 -60 -130 -20 -44 -48
-105 -62 -135 -40 -86 -82 -176 -201 -430 -245 -524 -242 -518 -307 -655 -31
-66 -72 -151 -90 -190 -18 -38 -56 -119 -85 -180 -103 -216 -143 -301 -175
-370 -18 -39 -67 -142 -110 -230 -42 -88 -90 -187 -105 -220 -15 -33 -57 -121
-93 -195 -139 -290 -201 -418 -237 -495 -21 -44 -75 -156 -120 -250 -45 -93
-108 -224 -140 -290 -54 -113 -155 -321 -327 -675 -95 -196 -212 -439 -224
-465 -5 -11 -13 -27 -19 -35 -5 -8 -47 -94 -94 -190 -80 -167 -246 -507 -409
-839 -73 -149 -84 -187 -49 -173 13 4 318 229 492 362 14 10 230 173 480 360
250 188 561 421 690 518 129 97 288 216 354 265 l118 88 -7 -58 c-3 -32 -8
-67 -10 -78 -3 -11 -7 -47 -10 -79 -3 -32 -7 -62 -9 -65 -2 -3 -7 -37 -11 -76
-4 -38 -8 -72 -10 -75 -2 -3 -6 -39 -10 -80 -4 -41 -8 -77 -10 -80 -1 -3 -6
-30 -9 -61 -4 -31 -8 -65 -10 -75 -2 -11 -7 -46 -10 -79 -4 -33 -13 -105 -21
-160 -8 -55 -17 -122 -20 -150 -4 -27 -8 -61 -10 -75 -2 -14 -7 -47 -10 -75
-4 -27 -8 -61 -10 -75 -2 -14 -6 -45 -10 -70 -3 -25 -8 -56 -10 -70 -2 -14 -7
-50 -10 -80 -4 -30 -15 -116 -25 -190 -11 -74 -24 -175 -30 -225 -6 -49 -13
-101 -15 -115 -2 -14 -6 -47 -10 -75 -3 -27 -8 -57 -10 -65 -2 -8 -6 -42 -10
-75 -3 -33 -10 -87 -15 -120 -5 -33 -12 -87 -15 -120 -4 -33 -8 -67 -11 -76
-3 -9 -7 -39 -9 -65 -3 -27 -9 -78 -15 -114 -6 -36 -12 -83 -15 -105 -2 -22
-7 -64 -11 -93 -11 -86 -10 -87 10 -87 16 0 39 46 127 260 59 143 112 271 118
285 5 14 18 43 27 65 9 22 21 51 27 65 6 14 11 27 11 30 1 3 22 55 47 115 26
61 104 250 174 420 70 171 133 324 140 340 21 47 315 759 655 1588 49 117 63
141 72 118 2 -4 17 -25 33 -46 96 -120 286 -360 325 -409 25 -32 53 -67 63
-79 10 -12 31 -37 45 -56 15 -18 165 -207 335 -420 169 -212 320 -401 335
-420 15 -19 56 -71 92 -116 36 -45 76 -97 90 -115 14 -18 33 -42 43 -54 10
-11 26 -30 35 -41 10 -11 31 -38 47 -60 28 -37 127 -161 198 -249 34 -42 50
-66 44 -66 -2 0 -17 6 -33 14 -16 8 -85 37 -154 66 -69 29 -143 60 -165 70
-22 10 -164 71 -315 135 -151 64 -288 122 -305 130 -135 61 -529 225 -540 225
-34 0 -19 -30 87 -176 62 -86 138 -191 168 -234 60 -85 79 -112 345 -480 97
-135 194 -270 215 -300 21 -30 101 -140 176 -245 75 -104 149 -206 163 -226
129 -179 167 -234 176 -248 6 -9 12 -18 15 -21 3 -3 17 -21 30 -40 13 -19 29
-40 35 -47 5 -7 43 -58 83 -115 41 -57 166 -231 279 -388 264 -367 454 -632
523 -729 30 -43 134 -187 230 -320 96 -133 201 -279 232 -324 61 -88 81 -108
97 -92 7 7 3 38 -10 90 -12 44 -23 87 -24 95 -2 8 -18 69 -35 135 -17 66 -58
226 -91 355 -33 129 -69 269 -80 310 -11 41 -22 82 -24 90 -1 8 -8 35 -15 60
-7 25 -14 52 -15 60 -2 8 -18 69 -35 135 -18 66 -33 127 -35 135 -2 8 -33 132
-70 275 -37 143 -68 267 -70 275 -2 8 -13 49 -24 90 -34 128 -143 553 -151
590 -5 19 -15 62 -24 94 -15 55 -15 92 1 50 3 -10 9 -21 13 -24 3 -3 39 -57
79 -120 40 -63 126 -198 191 -300 66 -102 143 -222 172 -268 29 -45 64 -100
78 -122 14 -22 85 -133 158 -248 73 -114 198 -308 277 -432 79 -124 148 -230
154 -237 6 -7 11 -14 11 -17 0 -3 11 -22 25 -43 14 -21 30 -45 35 -53 33 -52
160 -249 245 -383 55 -87 123 -192 150 -235 28 -42 151 -234 274 -427 328
-512 347 -541 425 -645 39 -52 78 -104 87 -115 10 -11 62 -81 118 -155 55 -74
109 -146 120 -160 20 -27 390 -518 421 -560 10 -14 35 -47 56 -75 21 -27 107
-142 191 -255 85 -113 159 -212 166 -220 7 -8 66 -87 132 -175 66 -88 125
-167 132 -175 7 -8 40 -53 75 -100 34 -47 65 -87 68 -90 3 -3 308 -409 679
-902 370 -494 679 -898 687 -898 22 0 23 14 4 82 -22 81 -34 183 -34 313 0
302 56 617 191 1068 l27 89 22 -44 c35 -68 127 -344 236 -708 55 -184 102
-342 104 -350 8 -32 24 -90 59 -215 20 -71 38 -137 40 -145 3 -8 13 -46 24
-85 29 -104 82 -298 86 -315 9 -41 44 -161 50 -169 14 -24 34 5 45 67 6 37 20
112 31 167 10 55 21 117 25 139 3 21 8 48 10 60 2 11 7 35 9 51 7 39 42 229
60 325 8 41 17 91 20 110 18 110 67 376 70 379 12 11 148 -396 170 -507 2 -9
10 -44 18 -77 9 -33 18 -72 21 -88 3 -15 7 -35 10 -45 3 -9 7 -28 10 -42 3
-14 7 -36 10 -50 4 -14 15 -72 26 -130 11 -58 22 -115 24 -127 3 -11 8 -43 12
-70 3 -26 8 -57 11 -68 2 -11 8 -47 13 -80 6 -33 12 -71 14 -85 2 -14 7 -47
11 -73 4 -27 8 -56 9 -65 2 -10 7 -44 11 -77 4 -32 9 -68 11 -78 2 -10 6 -46
9 -80 8 -79 13 -97 29 -97 8 0 109 147 227 328 117 180 255 392 307 472 52 80
133 204 179 275 172 264 293 450 303 465 11 16 175 268 293 450 122 188 261
400 364 558 53 81 144 221 203 312 58 91 142 219 185 285 147 226 222 340 270
415 157 243 245 376 254 387 6 7 11 14 11 16 0 3 17 31 39 63 21 33 85 131
142 219 57 87 145 221 194 297 50 76 142 217 205 315 210 324 254 387 412 593
166 216 556 724 598 780 63 83 346 451 388 506 26 33 58 75 72 94 14 18 127
166 252 329 272 353 359 467 375 489 7 9 21 28 31 41 l18 23 119 -32 c66 -17
145 -38 175 -46 30 -8 186 -53 345 -101 160 -47 306 -90 325 -95 19 -5 71 -21
115 -35 44 -13 87 -26 95 -28 8 -2 62 -18 120 -36 58 -17 110 -32 117 -33 7
-1 15 -5 18 -8 17 -17 55 23 225 228 102 123 192 233 200 245 15 19 20 18 340
-89 179 -60 332 -112 340 -115 123 -44 860 -287 872 -287 11 0 22 17 34 53 28
85 98 217 184 346 45 68 84 121 86 119 2 -2 -4 -31 -12 -63 -9 -33 -17 -67
-19 -75 -2 -8 -13 -53 -24 -100 -11 -47 -22 -101 -25 -120 -41 -264 -42 -290
-18 -290 5 0 31 33 60 73 28 39 63 86 77 102 15 17 41 47 58 67 17 21 34 34
38 30 4 -4 24 -65 45 -135 35 -119 56 -156 73 -130 17 28 271 323 277 323 3 0
3 -4 0 -8 -11 -19 -29 -324 -20 -347 11 -29 29 -14 99 77 72 95 174 203 183
193 3 -2 6 -26 8 -52 3 -70 13 -149 25 -218 6 -33 12 -67 13 -75 3 -16 46 -28
46 -12 0 28 182 302 200 302 6 0 10 -27 10 -60 0 -58 10 -122 32 -207 15 -58
39 -57 67 3 29 61 127 218 146 234 13 11 15 8 16 -16 3 -62 2 -102 -5 -181 -8
-79 -7 -83 12 -83 34 0 98 87 168 230 85 171 90 163 69 -103 -6 -79 -5 -87 11
-87 18 0 142 119 209 200 21 25 52 63 70 85 19 22 65 81 104 130 39 50 80 101
91 113 11 13 20 27 20 32 0 12 24 28 50 34 139 28 609 182 674 220 96 57 180
186 237 364 l23 72 55 21 c222 82 394 208 515 375 44 60 96 132 116 159 130
177 361 516 413 607 30 52 34 86 13 126 -21 40 -111 122 -196 178 -71 48 -205
138 -425 289 -55 38 -140 96 -190 130 -154 105 -189 130 -598 429 -219 160
-411 300 -426 311 -16 11 -66 47 -111 80 -45 33 -104 76 -130 95 -86 62 -344
251 -370 270 -21 16 -454 332 -719 524 -46 34 -109 79 -140 100 -31 22 -58 42
-61 46 -3 3 -61 46 -129 95 -554 402 -1056 770 -1059 777 -2 4 -8 8 -14 8 -6
0 -24 12 -42 26 -27 23 -141 106 -337 248 -68 49 -94 89 -104 157 -4 30 -9 63
-12 74 -2 11 -6 99 -8 195 -4 237 24 437 90 630 14 41 27 80 29 85 26 80 105
239 166 334 27 43 50 83 50 89 0 6 -15 18 -33 27 -31 14 -126 104 -197 185
-160 183 -660 937 -660 996 0 12 -6 26 -13 32 -9 8 -12 59 -12 202 l0 191 -85
77 c-46 42 -99 91 -116 107 -38 36 -208 193 -286 264 -50 47 -58 59 -68 109
-6 31 -20 95 -31 142 -47 205 -59 262 -84 375 -15 66 -28 127 -30 135 -2 8
-13 58 -24 110 -12 52 -30 136 -41 185 -28 125 -28 128 -35 330 -4 99 -8 216
-10 260 -2 44 -6 157 -10 250 -3 94 -8 211 -10 260 -2 50 -6 162 -10 250 -3
88 -7 203 -10 255 -2 52 -7 167 -10 255 -3 88 -7 210 -10 270 -9 209 -15 361
-20 505 -3 80 -8 195 -11 255 -2 61 -6 183 -8 272 -3 90 -7 166 -10 171 -3 5
-8 36 -11 68 -4 32 -8 66 -10 74 -2 8 -7 38 -10 65 -5 43 -12 95 -30 238 -2
15 -9 62 -14 105 -6 42 -13 100 -16 127 -3 28 -8 61 -10 75 -3 14 -7 48 -10
75 -3 28 -8 61 -10 75 -2 14 -7 50 -10 80 -4 30 -8 66 -10 80 -5 35 -12 85
-30 230 -9 69 -18 139 -20 155 -9 69 -17 128 -20 143 -1 10 -6 49 -11 87 -4
39 -8 72 -9 75 0 3 -4 32 -9 65 -4 33 -9 71 -11 85 -3 24 -10 77 -21 170 -3
25 -9 72 -14 105 -5 33 -12 83 -15 110 -5 43 -17 133 -31 240 -2 17 -6 49 -9
72 -3 23 -7 57 -10 75 -10 71 -31 235 -40 313 -4 28 -8 61 -10 75 -2 14 -6 45
-9 70 -3 25 -15 115 -26 200 -12 85 -23 169 -24 185 -6 48 -17 138 -21 165 -2
14 -6 45 -10 70 -3 25 -7 61 -10 80 -3 19 -7 55 -10 80 -5 41 -10 75 -20 150
-2 14 -7 50 -10 80 -3 30 -8 66 -10 80 -5 32 -35 262 -41 315 -3 22 -11 87
-19 145 -8 58 -17 123 -19 145 -3 22 -12 94 -21 160 -19 141 -22 165 -29 225
-11 94 -28 205 -32 210 -12 12 -55 -36 -272 -306 -127 -159 -238 -296 -245
-304 -6 -8 -28 -35 -47 -60 -19 -25 -45 -56 -57 -70 -18 -21 -105 -130 -241
-299 -15 -19 -39 -48 -53 -65 -14 -17 -144 -179 -290 -361 -145 -181 -266
-332 -269 -335 -3 -3 -68 -84 -145 -180 -77 -96 -142 -177 -145 -180 -3 -3
-21 -25 -40 -50 -19 -25 -45 -56 -57 -70 -18 -21 -219 -271 -315 -391 -14 -19
-80 -100 -145 -180 -65 -81 -131 -164 -148 -185 -16 -21 -42 -52 -56 -69 -14
-16 -174 -214 -354 -440 -181 -225 -371 -462 -423 -525 -118 -146 -98 -121
-237 -295 -66 -82 -122 -152 -125 -155 -3 -3 -32 -39 -65 -80 -33 -41 -62 -77
-65 -80 -3 -3 -21 -25 -40 -50 -19 -25 -37 -47 -40 -50 -3 -3 -24 -29 -48 -59
l-42 -53 -10 27 c-5 14 -10 31 -10 36 0 5 -4 17 -10 27 -5 9 -34 91 -64 182
-30 91 -129 383 -219 650 -90 267 -179 528 -196 580 -18 52 -36 104 -41 115
-4 11 -11 29 -13 40 -3 11 -84 252 -180 535 -96 283 -202 598 -236 700 -35
102 -66 194 -71 205 -5 11 -47 135 -94 275 -47 140 -162 482 -256 760 -185
544 -380 1123 -380 1126 0 1 -6 4 -14 7 -9 4 -21 -5 -31 -19z"/>
</g>
</svg>
